<svg id="Capa_1" enable-background="new 0 0 512 512" height="512" viewBox="0 0 512 512" width="512" xmlns="http://www.w3.org/2000/svg"><g><g><path clip-rule="evenodd" d="m164.401 468.046 9.241-40.706-9.241-51.477-21.401-8.957-18.538 8.957v47.537c0 8.731-.198 10.432-8.957 12.699-14.343 3.685-31.067 16.838-28.686 31.947z" fill="#ffeee6" fill-rule="evenodd"/></g><g><path clip-rule="evenodd" d="m250.402 226.789-18.992-13.465-17.121 13.465-6.52 27.468 6.52 28.999c2.154 9.695 8.107 18.085 18.056 18.085 9.921 0 18.056-8.135 18.056-18.085v-56.467z" fill="#ffeee6" fill-rule="evenodd"/></g><g><path clip-rule="evenodd" d="m114.512 226.789-18.056-9.468-18.085 9.468v56.466c0 9.95 8.135 18.085 18.085 18.085 9.921 0 18.056-8.135 18.056-18.085l9.014-27.014z" fill="#ffeee6" fill-rule="evenodd"/></g><g><path clip-rule="evenodd" d="m214.289 370.874v-79.597-8.022l-49.889-14.91-49.889 14.91v8.022 79.597c0 2.75 2.239 4.989 4.989 4.989h4.961 39.939 39.939 4.96c2.723 0 4.99-2.239 4.99-4.989z" fill="#7e707d" fill-rule="evenodd"/></g><g><path clip-rule="evenodd" d="m138.974 151.359c-37.615 0-60.603 27.128-60.603 66.614v8.816h36.141v56.466h99.777v-56.466h36.113v-8.816c0-39.487-22.988-66.614-60.575-66.614-11.225 24.038-39.458 25.427-50.853 0z" fill="#f37c7c" fill-rule="evenodd"/></g><g><path clip-rule="evenodd" d="m139.428 151.699c-.17-.113-.312-.227-.454-.34v10.261c0 15.392 11.423 27.978 25.426 27.978 13.974 0 25.426-12.586 25.426-27.978v-10.261c-19.019-13.295-34.751-10.829-50.398.34z" fill="#ffcebf" fill-rule="evenodd"/></g><g><path clip-rule="evenodd" d="m213.269 436.1c-8.73-2.268-8.929-3.969-8.929-12.699v-47.537h-14.003-25.936v92.183h77.582c2.381-15.109-14.371-28.262-28.714-31.947z" fill="#ffeee6" fill-rule="evenodd"/></g><g><path clip-rule="evenodd" d="m204.34 423.401v-47.537h-14.003v59.641c0 8.702.198 10.432 8.957 12.671 10.29 2.665 21.855 10.233 26.645 19.871h16.044c2.381-15.109-14.371-28.261-28.714-31.947-8.731-2.268-8.929-3.969-8.929-12.699z" fill="#ffdfcf" fill-rule="evenodd"/></g><g><path clip-rule="evenodd" d="m145.409 375.863h18.992v92.183h-18.992z" fill="#ffdfcf" fill-rule="evenodd"/></g><g><path clip-rule="evenodd" d="m181.068 156.433c19.502-9.071 34.894-30.614 34.894-48.019v-15.761c-20.891-1.446-17.773-27.921-32.172-24.208-11.14 2.863-15.25 4.309-19.389 4.309-4.138 0-8.249-1.446-19.389-4.309-14.4-3.713-11.31 22.762-32.172 24.208v15.761c0 17.405 15.363 38.948 34.865 48.019 1.247.567 2.494 1.106 3.77 1.587 4.677 1.729 8.787 2.58 12.926 2.58 4.11 0 8.249-.85 12.897-2.58 1.276-.482 2.551-1.02 3.77-1.587z" fill="#ffeee6" fill-rule="evenodd"/></g><g><path clip-rule="evenodd" d="m215.962 92.653c0-38.296-25.795-57.685-51.561-58.11-25.795.425-51.561 19.814-51.561 58.11 20.862-1.446 17.773-17.405 32.172-13.691 11.14 2.863 15.25 4.309 19.389 4.309 4.138 0 8.249-1.446 19.389-4.309 14.399-3.714 11.281 12.245 32.172 13.691z" fill="#7e707d" fill-rule="evenodd"/></g><g><path clip-rule="evenodd" d="m428.357 468.046v-420.379l-48.925-18-39.627 18v42.038 336.303 42.038l41.045 18z" fill="#edf4ff" fill-rule="evenodd"/></g><g><path clip-rule="evenodd" d="m440.489 12.546c0-2.778-2.268-5.046-5.046-5.046h-147.965v20.069c0 11.055 9.014 20.098 20.069 20.098h32.258 39.627 48.925 7.086c2.778 0 5.046-2.296 5.046-5.046z" fill="#f9f7f8" fill-rule="evenodd"/></g><g><path clip-rule="evenodd" d="m428.357 468.046h-88.552-77.412-73.784-73.784-56.126c-10.006 0-18.198 8.192-18.198 18.227v13.323c0 2.693 2.183 4.904 4.875 4.904h420.68c3.005 0 5.442-2.466 5.442-5.443v-25.569c0-3.005-2.438-5.443-5.442-5.443h-37.699z" fill="#7e707d" fill-rule="evenodd"/></g><g><path clip-rule="evenodd" d="m215.962 92.653c0-31.975-18-50.797-38.947-56.381 12.501 8.929 21.571 24.123 22.365 45.581.028.992.057 2.013.057 3.033v.964c3.372 3.118 7.879 6.208 16.525 6.803z" fill="#6a5d6a" fill-rule="evenodd"/></g><g><path clip-rule="evenodd" d="m215.962 108.414v-15.761c-8.645-.595-13.152-3.685-16.526-6.803v14.825c0 17.376-15.363 38.948-34.865 48.019-1.247.567-2.494 1.077-3.77 1.559-4.677 1.729-8.787 2.608-12.926 2.608-2.75 0-5.527-.397-8.447-1.162 2.636 1.814 5.414 3.402 8.277 4.734 1.247.567 2.494 1.106 3.77 1.587 4.677 1.729 8.787 2.58 12.926 2.58 4.11 0 8.249-.85 12.897-2.58 1.276-.482 2.551-1.02 3.77-1.587 19.502-9.071 34.894-30.615 34.894-48.019z" fill="#ffdfcf" fill-rule="evenodd"/></g><g><path clip-rule="evenodd" d="m440.489 42.621v-30.075c0-2.778-2.268-5.046-5.046-5.046h-33.335c2.778 0 5.046 2.268 5.046 5.046v30.076c0 2.75-2.268 5.046-5.046 5.046h26.248 7.086c2.779-.001 5.047-2.297 5.047-5.047z" fill="#f0f0f0" fill-rule="evenodd"/></g><g><path clip-rule="evenodd" d="m428.357 468.046v-420.379h-26.249-7.086v420.379z" fill="#dbeaff" fill-rule="evenodd"/></g><g><path clip-rule="evenodd" d="m471.499 499.057v-25.569c0-3.005-2.438-5.443-5.442-5.443h-33.307c2.976 0 5.414 2.438 5.414 5.443v25.569c0 2.976-2.438 5.443-5.414 5.443h33.306c3.005 0 5.443-2.466 5.443-5.443z" fill="#6a5d6a" fill-rule="evenodd"/></g><g><path clip-rule="evenodd" d="m214.289 370.874v-79.597-8.022h-18.963v8.022 79.597c0 2.75-2.239 4.989-4.989 4.989h14.003 4.96c2.722 0 4.989-2.239 4.989-4.989z" fill="#6a5d6a" fill-rule="evenodd"/></g><g><path clip-rule="evenodd" d="m250.402 217.973c0-39.487-22.988-66.614-60.575-66.614 38.975 18.51 40.931 47.197 42.519 75.43h18.056z" fill="#ee6161" fill-rule="evenodd"/></g><g><path clip-rule="evenodd" d="m250.402 226.789h-18.056v56.466c0 6.661-3.657 12.501-9.042 15.647 2.664 1.531 5.754 2.438 9.042 2.438 9.921 0 18.056-8.135 18.056-18.085z" fill="#ffdfcf" fill-rule="evenodd"/></g><g><path clip-rule="evenodd" d="m114.512 226.789h-18.056v56.466c0 6.661-3.657 12.501-9.042 15.647 2.665 1.531 5.754 2.438 9.042 2.438 9.921 0 18.056-8.135 18.056-18.085z" fill="#ffdfcf" fill-rule="evenodd"/></g><g><path clip-rule="evenodd" d="m214.289 228.376c-9.808 0-18.963 5.244-18.963 13.436v41.443h18.963z" fill="#ee6161" fill-rule="evenodd"/></g><path d="m466.057 460.546h-30.2l-.014-203.029c0-4.143-3.358-7.5-7.5-7.5s-7.5 3.357-7.5 7.5l.014 203.029h-73.552v-27.037h28.074c4.142 0 7.5-3.357 7.5-7.5s-3.358-7.5-7.5-7.5h-28.074v-27.038h11.917c4.142 0 7.5-3.357 7.5-7.5s-3.358-7.5-7.5-7.5h-11.917v-27.038h28.074c4.142 0 7.5-3.357 7.5-7.5s-3.358-7.5-7.5-7.5h-28.074v-27.038h11.917c4.142 0 7.5-3.357 7.5-7.5s-3.358-7.5-7.5-7.5h-11.917v-27.038h28.074c4.142 0 7.5-3.357 7.5-7.5s-3.358-7.5-7.5-7.5h-28.074v-27.038h11.917c4.142 0 7.5-3.357 7.5-7.5s-3.358-7.5-7.5-7.5h-11.917v-27.037h28.074c4.142 0 7.5-3.357 7.5-7.5s-3.358-7.5-7.5-7.5h-28.074v-27.038h11.917c4.142 0 7.5-3.357 7.5-7.5s-3.358-7.5-7.5-7.5h-11.917v-27.039h28.074c4.142 0 7.5-3.357 7.5-7.5s-3.358-7.5-7.5-7.5h-28.074v-27.038h73.552v167.872c0 4.143 3.358 7.5 7.5 7.5s7.5-3.357 7.5-7.5v-167.893c6.725-.221 12.132-5.747 12.132-12.525v-30.075c-.001-6.918-5.629-12.546-12.546-12.546h-147.965-82.033c-4.142 0-7.5 3.357-7.5 7.5s3.358 7.5 7.5 7.5h74.533v12.569c0 15.218 12.367 27.598 27.569 27.598h24.757v405.379h-83.027c-2.745-15.071-18.319-27.644-34.123-31.705-1.694-.44-2.66-.767-3.203-.982-.111-1.147-.111-3.151-.111-4.458v-40.298c5.672-1.177 9.949-6.212 9.949-12.228v-64.328c3.22 1.469 6.793 2.294 10.556 2.294 14.092 0 25.557-11.478 25.557-25.585v-56.466-8.816c0-21.463-6.257-39.826-18.094-53.105-8.613-9.662-19.721-16.107-32.658-19.092 9.878-11.157 16.311-24.901 16.311-37.362v-15.762c0-19.765-6.332-36.555-18.31-48.556-10.722-10.742-25.15-16.799-40.627-17.054-.082-.002-.165-.002-.247 0-15.487.255-29.92 6.312-40.639 17.055-11.971 11.997-18.298 28.787-18.298 48.555v15.761c0 12.463 6.427 26.205 16.298 37.362-12.942 2.985-24.054 9.429-32.669 19.09-11.84 13.278-18.098 31.642-18.098 53.106v8.816 56.466c0 14.107 11.477 25.585 25.584 25.585 3.764 0 7.336-.825 10.557-2.294v64.328c0 6.017 4.277 11.052 9.949 12.228v40.299c0 1.305 0 3.306-.111 4.452-.544.217-1.513.543-3.213.983-15.809 4.062-31.375 16.636-34.115 31.71h-20.823c-14.17 0-25.698 11.541-25.698 25.728v13.322c0 6.84 5.552 12.404 12.375 12.404h420.68c7.136 0 12.942-5.806 12.942-12.942v-25.568c.001-7.136-5.805-12.943-12.941-12.943zm-171.079-432.977v-12.569h138.01v25.167h-4.632-88.552-32.257c-6.931 0-12.569-5.651-12.569-12.598zm-61.208 432.977h-61.87v-77.183h24.939v40.037c0 10.999 1.435 16.554 14.562 19.963 8.581 2.206 19.207 9.166 22.369 17.183zm9.132-177.291c0 5.837-4.736 10.585-10.557 10.585s-10.556-4.748-10.556-10.585v-48.966h21.113zm-78.502-241.211c19.092.37 39.453 13.32 43.383 40.767-2.062-1.2-3.572-2.743-5.191-4.397-3.042-3.106-7.344-7.502-14.867-7.502-1.751 0-3.677.238-5.803.787-2.703.694-15.361 4.072-17.522 4.072-2.16 0-14.818-3.378-17.515-4.071-11.262-2.9-16.935 2.886-20.689 6.716-1.617 1.65-3.125 3.188-5.178 4.388 3.935-27.441 24.293-40.391 43.382-40.76zm-44.06 66.37v-9.351c8.741-2.168 13.327-6.84 16.57-10.149 3.234-3.301 3.359-3.429 6.236-2.688 2.651.682 17.127 4.545 21.255 4.545s18.604-3.863 21.262-4.546c2.863-.741 2.989-.61 6.211 2.682 3.243 3.313 7.83 7.991 16.588 10.159v9.349c0 15.729-16.096 36.022-33.777 42.577-3.869 1.438-7.137 2.108-10.284 2.108-3.142 0-6.423-.672-10.318-2.111-17.661-6.548-33.743-26.84-33.743-42.575zm61.835 55.738c-1.097 10.099-8.642 17.946-17.774 17.946-9.128 0-16.67-7.841-17.772-17.933.745.313 1.494.611 2.247.89 5.619 2.076 10.553 3.044 15.525 3.044 4.988 0 9.917-.969 15.504-3.047.761-.281 1.517-.583 2.27-.9zm-50.7-4.86v2.328c0 19.562 14.771 35.479 32.926 35.479 18.156 0 32.926-15.916 32.926-35.479v-2.327c28.309 3.24 45.575 25.092 45.575 58.68v1.316h-28.613c-4.142 0-7.5 3.357-7.5 7.5v48.966h-26.316c-4.142 0-7.5 3.357-7.5 7.5s3.358 7.5 7.5 7.5h26.316v77.608h-34.889v-38.49h7.693c4.142 0 7.5-3.357 7.5-7.5s-3.358-7.5-7.5-7.5h-30.386c-4.142 0-7.5 3.357-7.5 7.5s3.358 7.5 7.5 7.5h7.693v38.49h-34.888v-77.608h26.571c4.142 0 7.5-3.357 7.5-7.5s-3.358-7.5-7.5-7.5h-26.571v-48.966c0-4.143-3.358-7.5-7.5-7.5h-28.641v-1.316c0-33.589 17.277-55.442 45.604-58.681zm-35.019 134.548c-5.836 0-10.584-4.748-10.584-10.585v-48.966h21.141v48.966c-.001 5.837-4.737 10.585-10.557 10.585zm20.927 149.52c13.14-3.401 14.578-8.957 14.578-19.96v-40.037h24.939v77.183h-61.872c3.157-8.02 13.774-14.98 22.355-17.186zm346.616 53.64h-415.998v-10.727c0-5.915 4.799-10.728 10.698-10.728h405.3z"/></g></svg>