<?xml version="1.0" encoding="iso-8859-1"?>
<!-- Generator: Adobe Illustrator 19.0.0, SVG Export Plug-In . SVG Version: 6.00 Build 0)  -->
<svg version="1.1" id="Capa_1" xmlns="http://www.w3.org/2000/svg" xmlns:xlink="http://www.w3.org/1999/xlink" x="0px" y="0px"
	 viewBox="0 0 512 512" style="enable-background:new 0 0 512 512;" xml:space="preserve">
<path style="fill:#FF5368;" d="M483.287,434.172c11.716-11.716,11.716-30.711,0-42.426L120.254,28.713
	c-11.716-11.716-30.711-11.716-42.426,0l-15.91,15.91l405.459,405.459L483.287,434.172z"/>
<path style="fill:#C5324F;" d="M483.287,434.172c11.716-11.716,11.716-30.711,0-42.426L120.254,28.713
	c-11.716-11.716-30.71-11.716-42.426,0L446.164,397.05c8.787,8.787,8.787,23.033,0,31.819l0,0l21.213,21.213L483.287,434.172z"/>
<path style="fill:#8B9BA9;" d="M500.023,11.976L500.023,11.976C500.022,11.976,500.022,11.976,500.023,11.976l-0.008,0.007
	L136.828,301.771c0,0-14.381,12.597-22.666,20.095c-22.463-27.724-63.973-29.791-89.074-4.695c-23.449,23.443-23.45,61.387,0,84.831
	c23.514,23.509,61.957,23.45,85.366-0.543l99.298-25.838c0.075,0.062,0.038,0.031,0,0
	c100.27-111.548,197.76-226.105,291.414-343.313C506.018,26.234,505.521,17.474,500.023,11.976z M88.725,380.795
	c-11.697,11.693-30.729,11.693-42.425,0c-11.724-11.721-11.725-30.694,0-42.416c11.695-11.693,30.728-11.695,42.425,0
	C100.421,350.073,100.421,369.101,88.725,380.795z"/>
<path style="fill:#4D5967;" d="M190.095,397.906c6.713-7.417,12.968-14.844,19.656-22.284c-2.804-2.36-5.282-4.531-8.317-6.51
	c-8.331-5.433-13.7-14.375-14.861-24.251c-0.017-0.145-0.035-0.291-0.052-0.437c-1.298-10.655,2.31-21.324,9.902-28.914
	L500.022,11.976c-5.499-5.497-14.261-5.993-20.336-1.14C370.279,98.233,263.292,188.582,158.809,281.748
	c-0.003,0.003-0.007,0.006-0.01,0.009c-7.463,6.655-14.533,13.331-21.971,20.014c0.125,0.149-0.124-0.15,0,0
	c18.783,22.615,16.971,56.352-3.819,77.137l-22.557,22.552c-0.175,0.179-0.338,0.365-0.516,0.543
	c-0.004,0.004-0.009,0.008-0.013,0.013v0.097l0.015,0.015l0,0c-12.426,12.423-18.731,29.336-17.398,47.081
	c0.944,12.565,5.909,24.579,14.086,34.166c12.013,14.085,28.875,21.126,45.736,21.126c15.364,0,30.729-5.846,42.425-17.541l0,0
	c11.332-11.33,17.573-26.394,17.573-42.416s-6.241-31.086-17.573-42.415C193.289,400.628,191.72,399.224,190.095,397.906z
	 M131.151,465.752c-18.715-18.713-5.621-51.201,21.212-51.201c16.58,0,29.999,13.414,29.999,29.993
	C182.363,471.062,150.065,484.661,131.151,465.752z"/>
<path d="M505.316,6.671c-0.025-0.024-0.052-0.045-0.076-0.069C501.005,2.405,495.169,0,489.212,0h-0.03
	c-5.149,0-10.189,1.77-14.189,4.979c-54.449,43.49-109.099,88.38-162.438,133.42c-12.97,10.951-25.951,21.988-38.92,33.086
	L125.557,23.409c-14.622-14.62-38.412-14.618-53.033,0L2.197,93.737c-2.929,2.93-2.929,7.678,0,10.607
	c2.929,2.928,7.678,2.928,10.606,0L61.918,55.23l10.733,10.733l-49.114,49.114c-2.929,2.93-2.929,7.678,0,10.607
	c1.464,1.464,3.384,2.196,5.303,2.196s3.839-0.732,5.303-2.196L83.258,76.57l10.733,10.733l-49.115,49.114
	c-2.929,2.93-2.929,7.678,0,10.607c1.464,1.464,3.384,2.196,5.303,2.196c1.919,0,3.839-0.732,5.303-2.196l49.115-49.115
	l10.733,10.733l-49.114,49.114c-2.929,2.93-2.929,7.678,0,10.607c1.464,1.464,3.384,2.196,5.303,2.196s3.839-0.732,5.303-2.196
	l49.114-49.114l10.733,10.733l-49.114,49.114c-2.929,2.93-2.929,7.678,0,10.607c1.464,1.464,3.384,2.196,5.303,2.196
	s3.839-0.732,5.303-2.196l49.114-49.114l10.733,10.733l-49.114,49.114c-2.929,2.93-2.929,7.678,0,10.607
	c1.464,1.464,3.384,2.196,5.303,2.196s3.839-0.732,5.303-2.196l49.114-49.114l10.733,10.733l-49.114,49.114
	c-2.929,2.93-2.929,7.678,0,10.607c1.464,1.464,3.384,2.196,5.303,2.196s3.839-0.732,5.303-2.196l49.114-49.114l10.734,10.734
	l-49.114,49.114c-2.929,2.93-2.929,7.678,0,10.607c1.464,1.464,3.384,2.196,5.303,2.196s3.839-0.732,5.303-2.196l49.115-49.115
	l11.111,11.111c-23.029,20.055-45.939,40.229-68.591,60.428c-0.01,0-0.01,0-0.01,0.011c-6.729,5.985-14.069,12.879-21.31,19.409
	c-4.436,3.209-3.591,8.85-1.39,11.051c0,0,0,0.01,0.01,0.01c7.22,8.74,11.21,19.9,11.21,31.439c0,13.49-5.19,26.11-14.619,35.53
	c-0.095,0.095-22.522,22.523-22.62,22.62C72.47,429.593,15.033,406.818,15,359.55c0.02-28.697,23.197-52.399,52.479-52.42
	c15.949,0.01,30.839,7.11,40.849,19.46c2.715,3.346,7.7,3.708,10.86,0.84c0.04-0.03,0.07-0.06,0.11-0.1l0.07-0.061
	c3.513-3.158,3.265-8.849-0.66-11.66c-12.82-14.92-31.47-23.479-51.179-23.479h-0.1c-37.498,0-67.472,30.535-67.428,67.42
	c-0.033,27.794,16.952,52.344,42.079,62.55c14.92,6.042,31.264,6.458,46.028,1.725C74.036,467.601,106.787,512,152.307,512h0.08
	c37.196,0,67.51-30.112,67.469-67.46c0.02-17.75-6.82-34.5-19.23-47.181c0.007-0.008,15.314-17.409,15.314-17.409
	c27.02-30.067,53.747-60.271,80.15-90.548l11.3,11.3l-49.114,49.114c-2.929,2.93-2.929,7.678,0,10.607
	c1.465,1.464,3.385,2.196,5.304,2.196s3.839-0.732,5.304-2.196l49.114-49.114l10.733,10.733l-49.114,49.114
	c-2.929,2.93-2.929,7.678,0,10.607c1.465,1.464,3.385,2.196,5.304,2.196s3.839-0.732,5.304-2.196l49.114-49.114l10.732,10.732
	l-49.114,49.114c-2.929,2.93-2.929,7.678,0,10.607c1.465,1.464,3.385,2.196,5.304,2.196s3.839-0.732,5.304-2.196l49.114-49.114
	l10.732,10.732l-49.114,49.115c-2.929,2.93-2.929,7.678,0,10.607c1.465,1.464,3.385,2.196,5.304,2.196s3.839-0.732,5.304-2.196
	l49.114-49.115l10.733,10.733l-49.114,49.114c-2.929,2.93-2.929,7.678,0,10.607c1.465,1.464,3.385,2.196,5.304,2.196
	s3.839-0.732,5.304-2.196l49.114-49.114l10.732,10.732l-49.114,49.114c-2.929,2.93-2.929,7.678,0,10.607
	c1.465,1.464,3.385,2.196,5.304,2.196s3.839-0.732,5.304-2.196l49.114-49.114l10.732,10.732l-49.114,49.114
	c-2.929,2.93-2.929,7.678,0,10.607c1.465,1.464,3.385,2.196,5.304,2.196s3.839-0.732,5.304-2.196l49.114-49.114l10.732,10.732
	l-49.114,49.114c-2.929,2.93-2.929,7.678,0,10.607c1.465,1.464,3.385,2.196,5.304,2.196s3.839-0.732,5.304-2.196l54.41-54.411
	c0.002-0.002,0.005-0.005,0.008-0.007s0.005-0.005,0.007-0.008l15.902-15.902c7.083-7.083,10.984-16.5,10.984-26.517
	s-3.901-19.434-10.983-26.517L340.352,238.205c57.504-67.082,113.25-134.367,166.663-201.215
	C514.263,27.919,513.531,14.885,505.316,6.671z M72.525,44.623l10.606-10.606c8.772-8.772,23.047-8.772,31.82,0l147.268,147.269
	c-9.501,8.162-18.994,16.346-28.468,24.565L72.525,44.623z M477.984,397.05c4.25,4.249,6.591,9.899,6.591,15.909
	s-2.341,11.66-6.591,15.909l-10.606,10.606L305.962,278.06c8.23-9.473,16.432-18.952,24.594-28.437L477.984,397.05z
	 M208.956,365.264c-3.635-2.783-13.327-7.601-14.939-21.285c-0.45-3.779-3.64-6.62-7.43-6.62c-4.531,0-7.984,3.935-7.47,8.381
	c0.01,0,0.01,0,0.01,0c1.43,12.229,8.07,23.04,18.21,29.649c0.53,0.351,1.06,0.71,1.61,1.11c-5.202,5.935-9.496,10.932-14.42,16.37
	c-1.37,1.52-2.07,3.569-1.91,5.609c0.15,2.04,1.16,3.96,2.75,5.25c12.587,10.275,19.478,25.063,19.49,40.811
	c-0.021,28.904-23.306,52.44-52.499,52.46c-28.854-0.038-52.499-23.293-52.499-52.46c0.034-23.737,15.047-36.449,16.2-38.08
	l22.25-22.25c12.258-12.258,19.019-28.842,19.019-46.141c0.01-12.64-3.61-24.85-10.449-35.289
	c5.872-5.37,10.979-10.135,16.91-15.421l0.03-0.04C326.433,142.326,482.44,17.689,485.372,16.01
	c-2.011,2.011-294.635,294.509-295.985,296.03c-2.75,3.1-2.46,7.85,0.63,10.59c3.106,2.766,7.863,2.442,10.59-0.63
	c0.897-1.022,293.229-293.247,295.372-295.39C495.366,27.689,374.581,180.679,208.956,365.264z"/>
<path d="M30.006,359.587c0,10.011,3.903,19.426,10.99,26.512c7.311,7.31,16.911,10.963,26.515,10.963
	c9.601,0,19.205-3.655,26.515-10.963l0,0c14.637-14.634,14.639-38.388,0-53.023C70.369,309.42,30.004,326.466,30.006,359.587z
	 M83.421,375.491c-8.773,8.769-23.047,8.771-31.82,0c-14.05-14.049-4.212-38.387,15.91-38.387
	C87.691,337.105,97.407,361.507,83.421,375.491z"/>
<path d="M152.361,407.051c-15.421,0-28.668,8.854-34.572,23.108c-5.933,14.324-2.845,29.995,8.058,40.896
	c7.242,7.24,16.571,11.036,26.205,11.036c4.867,0,9.813-0.97,14.603-2.954c14.313-5.93,23.205-19.186,23.205-34.595
	C189.859,423.87,173.038,407.051,152.361,407.051z M160.913,465.28c-6.71,2.778-16.659,2.969-24.462-4.832
	c-7.807-7.806-7.6-17.799-4.805-24.549c2.773-6.695,9.671-13.849,20.714-13.849c12.406,0,22.499,10.09,22.499,22.492
	C174.859,455.572,167.655,462.487,160.913,465.28z"/>
<g>
</g>
<g>
</g>
<g>
</g>
<g>
</g>
<g>
</g>
<g>
</g>
<g>
</g>
<g>
</g>
<g>
</g>
<g>
</g>
<g>
</g>
<g>
</g>
<g>
</g>
<g>
</g>
<g>
</g>
</svg>
