<svg id="Capa_1" enable-background="new 0 0 512 512" height="512" viewBox="0 0 512 512" width="512" xmlns="http://www.w3.org/2000/svg"><path d="m112.169 112.739v78.044h29.974v-48.044h98.87v226.522h-38.866v30h107.706v-30h-38.866v-226.522h98.87v48.044h29.974v-78.044z" fill="#56e6fd"/><path d="m256 112.739v286.522h53.853v-30h-38.866v-226.522h98.87v48.044h29.974v-78.044z" fill="#56b9fc"/><path d="m32.176 79.102h29.973v354.813h-29.973z" fill="#f3f4ff"/><path d="m450.49 79.102h29.973v354.813h-29.973z" fill="#e3e6fe"/><path d="m79.071 32.165h354.497v30h-354.497z" fill="#f3f4ff"/><path d="m79.071 450.852h354.497v30h-354.497z" fill="#f3f4ff"/><path d="m256 32.165h177.568v30h-177.568z" fill="#e3e6fe"/><path d="m256 450.852h177.568v30h-177.568z" fill="#e3e6fe"/><g fill="#1e608b"><path d="m46.843 93.77c-25.83 0-46.843-21.033-46.843-46.885s21.013-46.885 46.843-46.885 46.843 21.032 46.843 46.885-21.014 46.885-46.843 46.885z"/><path d="m46.843 93.77v-93.77c25.829 0 46.843 21.032 46.843 46.885s-21.014 46.885-46.843 46.885z"/><path d="m465.157 93.77c-25.829 0-46.843-21.032-46.843-46.885s21.014-46.885 46.843-46.885c25.83 0 46.843 21.032 46.843 46.885s-21.013 46.885-46.843 46.885z"/><path d="m465.157 93.77v-93.77c25.83 0 46.843 21.032 46.843 46.885s-21.013 46.885-46.843 46.885z"/><path d="m46.843 512c-25.83 0-46.843-21.032-46.843-46.885s21.013-46.885 46.843-46.885 46.843 21.032 46.843 46.885-21.014 46.885-46.843 46.885z"/><path d="m46.843 512v-93.77c25.829 0 46.843 21.032 46.843 46.885s-21.014 46.885-46.843 46.885z"/><path d="m465.157 512c-25.829 0-46.843-21.032-46.843-46.885s21.013-46.885 46.843-46.885c25.829 0 46.843 21.032 46.843 46.885s-21.013 46.885-46.843 46.885z"/><path d="m465.157 512v-93.77c25.829 0 46.843 21.032 46.843 46.885s-21.013 46.885-46.843 46.885z"/></g></svg>